#!OML:ASF I:\Actors\actors\Patient Classification 2\Patient 1\Session 1\actor1.ASF
:FULLY-SPECIFIED
:DEGREES
933
root -0.714233 18.8291 5.13946 4.34137 5.68088 -2.75171
lowerback 12.158 0.862871 -1.15983
upperback -0.37204 0.972068 -0.127202
thorax -7.24437 0.514372 0.343441
lowerneck -22.1633 -5.62648 -4.27217
upperneck 14.023 -7.8271 7.65671
head 8.47591 -3.12565 2.20435
rclavicle -9.24349e-015 -2.18663e-014
rhumerus 14.8295 32.4621 -55.0174
rradius 77.8798
rwrist -19.9469
rhand 5.06088 -49.1558
rfingers 7.12502
rthumb 30.428 -76.6647
lclavicle -9.24349e-015 -2.18663e-014
lhumerus 13.2889 -32.6613 81.6688
lradius 78.9738
lwrist 47.4036
lhand -21.5894 -3.49089
lfingers 7.12502
lthumb 4.80526 26.4346
rfemur 2.56675 -6.37711 16.9624
rtibia -1.27222e-014
rfoot -15.0825 -10.6195
rtoes -0.821003
lfemur -13.1257 -5.79484 -10.4517
ltibia 23.076
lfoot -17.8119 10.0688
ltoes -55.813
934
root -0.708327 18.8272 5.14072 4.30818 5.70597 -2.77098
lowerback 11.9241 0.85906 -1.26305
upperback -0.312177 0.957591 -0.1092
thorax -7.04984 0.510682 0.427144
lowerneck -21.9634 -5.62042 -4.18199
upperneck 13.903 -7.84823 7.67913
head 8.40053 -3.1362 2.19789
rclavicle -5.36719e-015 9.54166e-015
rhumerus 14.141 33.0186 -53.9839
rradius 79.6159
rwrist -20.5372
rhand 5.48125 -49.1496
rfingers 7.12502
rthumb 30.8289 -76.5836
lclavicle -5.36719e-015 9.54166e-015
lhumerus 12.5785 -32.9354 81.6208
lradius 79.8262
lwrist 46.5751
lhand -21.8484 -4.29486
lfingers 7.12502
lthumb 4.55513 25.6362
rfemur 2.60126 -6.39783 16.9568
rtibia 3.18055e-015
rfoot -15.0787 -10.6212
rtoes -0.839345
lfemur -13.1006 -5.85471 -10.4613
ltibia 23.0946
lfoot -17.824 10.1178
ltoes -55.9335
935
root -0.706818 18.8251 5.14575 4.2448 5.78705 -2.78027
lowerback 11.6164 0.825875 -1.52743
upperback -0.159579 0.890107 -0.0114941
thorax -6.71811 0.486664 0.696471
lowerneck -21.8857 -5.58148 -4.23529
upperneck 13.7449 -7.79689 7.82058
head 8.33992 -3.1058 2.26309
rclavicle -9.54166e-015 -6.75868e-015
rhumerus 13.5144 33.5147 -52.9406
rradius 81.5101
rwrist -20.9173
rhand 6.21595 -49.2862
rfingers 7.12502
rthumb 31.5291 -76.5854
lclavicle -9.54166e-015 -6.75868e-015
lhumerus 12.0208 -33.0511 81.5429
lradius 80.6317
lwrist 45.9242
lhand -22.2098 -4.99434
lfingers 7.12502
lthumb 4.20619 24.9439
rfemur 2.70419 -6.47464 16.9523
rtibia -5.56597e-015
rfoot -15.1279 -10.5687
rtoes -0.66086
lfemur -13.0292 -5.86868 -10.4659
ltibia 23.0985
lfoot -17.82 10.0608
ltoes -56.005
936
root -0.711734 18.8233 5.15429 4.16547 5.94249 -2.79463
lowerback 11.5232 0.823126 -1.69533
upperback -0.141192 0.866943 0.00729376
thorax -6.64837 0.480833 0.8162
lowerneck -21.8097 -5.62813 -4.32953
upperneck 13.725 -7.8727 8.02016
head 8.33914 -3.12821 2.33575
rclavicle -1.68967e-015 -5.96354e-015
rhumerus 12.3688 33.8127 -52.3336
rradius 83.4429
rwrist -21.5882
rhand 7.1027 -49.1951
rfingers 7.12502
rthumb 32.3734 -76.3254
lclavicle -1.68967e-015 -5.96354e-015
lhumerus 11.3355 -33.3853 81.5377
lradius 81.4341
lwrist 45.6072
lhand -22.4914 -5.41314
lfingers 7.12502
lthumb 3.93428 24.5303
rfemur 2.8652 -6.62637 16.979
rtibia 2.38542e-015
rfoot -15.2156 -10.481
rtoes -0.354692
lfemur -12.9375 -5.94088 -10.4316
ltibia 23.0947
lfoot -17.8334 9.95375
ltoes -56.0546
937
root -0.713531 18.8222 5.16118 4.10548 6.06267 -2.81242
lowerback 11.704 0.851064 -1.62401
upperback -0.301343 0.901079 -0.104389
thorax -6.91885 0.495523 0.648841
lowerneck -21.811 -5.75327 -4.37445
upperneck 13.9495 -8.08174 8.18251
head 8.43955 -3.20652 2.36713
rclavicle 6.16232e-015 2.26615e-014
rhumerus 11.9673 34.6587 -50.6386
rradius 85.6737
rwrist -24.068
rhand 7.48483 -49.2168
rfingers 7.12502
rthumb 32.7371 -76.2721
lclavicle 6.16232e-015 2.26615e-014
lhumerus 10.4292 -33.9134 81.587
lradius 82.2486
lwrist 45.3671
lhand -22.5408 -5.65585
lfingers 7.12502
lthumb 3.88653 24.2885
rfemur 2.98693 -6.74309 17.0011
rtibia -1.59028e-015
rfoot -15.2677 -10.4359
rtoes -0.232404
lfemur -12.8729 -6.0184 -10.4017
ltibia 23.0909
lfoot -17.8664 9.88929
ltoes -56.0962
938
root -0.708709 18.8212 5.16501 4.06993 6.13511 -2.7958
lowerback 11.8466 0.846614 -1.56925
upperback -0.410967 0.892368 -0.196796
thorax -7.11378 0.489097 0.519161
lowerneck -21.9695 -5.82457 -4.38772
upperneck 14.2224 -8.21349 8.27959
head 8.57384 -3.24767 2.37995
rclavicle 9.0447e-015 1.63003e-014
rhumerus 9.83411 34.2476 -51.6979
rradius 87.8537
rwrist -24.8713
rhand 9.0889 -48.7694
rfingers 7.12502
rthumb 34.2617 -75.4947
lclavicle 9.0447e-015 1.63003e-014
lhumerus 9.56243 -34.2911 81.5912
lradius 83.0351
lwrist 45.0623
lhand -22.487 -6.04643
lfingers 7.12502
lthumb 3.93853 23.8969
rfemur 3.05247 -6.81371 16.9636
rtibia -9.54166e-015
rfoot -15.2576 -10.4562
rtoes -0.456466
lfemur -12.8414 -5.91088 -10.4397
ltibia 23.0863
lfoot -17.8004 9.72331
ltoes -56.1405
939
root -0.702452 18.8203 5.16747 4.05314 6.17637 -2.76466
lowerback 11.8201 0.841904 -1.61041
upperback -0.440198 0.877708 -0.2367
thorax -7.12965 0.482922 0.502935
lowerneck -22.0034 -5.86719 -4.3909
upperneck 14.3451 -8.30066 8.37651
head 8.63281 -3.27432 2.39981
rclavicle -6.85807e-015 -2.8625e-014
rhumerus 9.87514 34.8947 -49.9806
rradius 90.0764
rwrist -27.4673
rhand 10.1896 -48.0148
rfingers 7.12502
rthumb 35.3061 -74.4988
lclavicle -6.85807e-015 -2.8625e-014
lhumerus 8.80147 -34.6392 81.5822
lradius 83.7992
lwrist 44.7227
lhand -22.5087 -6.50205
lfingers 7.12502
lthumb 3.9175 23.4417
rfemur 3.08275 -6.85445 16.9054
rtibia -1.27222e-014
rfoot -15.2337 -10.4833
rtoes -0.738572
lfemur -12.8265 -5.8234 -10.4993
ltibia 23.0878
lfoot -17.7376 9.59123
ltoes -56.1434
940
root -0.698143 18.8197 5.16974 4.03593 6.19052 -2.74713
lowerback 11.6735 0.838901 -1.75244
upperback -0.430457 0.858295 -0.220616
thorax -7.03832 0.478464 0.605426
lowerneck -21.7849 -5.85067 -4.30617
upperneck 14.2536 -8.30523 8.38676
head 8.56196 -3.27911 2.39276
rclavicle -4.96962e-015 8.74653e-015
rhumerus 7.98518 34.296 -50.9969
rradius 92.1894
rwrist -28.0557
rhand 13.0376 -46.9767
rfingers 7.12502
rthumb 38.0014 -72.7756
lclavicle -4.96962e-015 8.74653e-015
lhumerus 8.11128 -34.9652 81.6084
lradius 84.502
lwrist 44.2603
lhand -22.5383 -6.83548
lfingers 7.12502
lthumb 3.88893 23.1088
rfemur 3.1131 -6.86786 16.8685
rtibia -2.38542e-015
rfoot -15.2374 -10.4866
rtoes -0.902748
lfemur -12.8024 -5.90829 -10.5346
ltibia 23.1011
lfoot -17.8045 9.62502
ltoes -56.0798
941
root -0.696194 18.8188 5.17109 4.01583 6.1823 -2.78935
lowerback 11.3133 0.801306 -2.05718
upperback -0.258707 0.788087 -0.0644739
thorax -6.65672 0.454084 0.959589
lowerneck -21.6177 -5.71758 -4.17735
upperneck 13.979 -8.12255 8.28497
head 8.41743 -3.2086 2.36744
rclavicle 3.45885e-014 2.34566e-014
rhumerus 7.80716 34.1583 -50.4863
rradius 94.0855
rwrist -29.8082
rhand 15.1234 -46.4763
rfingers 7.12502
rthumb 39.9678 -71.712
lclavicle 3.45885e-014 2.34566e-014
lhumerus 7.62469 -35.0216 81.6093
lradius 85.1807
lwrist 43.7571
lhand -22.477 -7.19729
lfingers 7.12502
lthumb 3.94815 22.7459
rfemur 3.13842 -6.85614 16.909
rtibia 2.38542e-015
rfoot -15.2528 -10.4777
rtoes -0.906804
lfemur -12.7858 -5.95771 -10.493
ltibia 23.1182
lfoot -17.8948 9.68205
ltoes -56.0652
942
root -0.694032 18.8178 5.17117 4.01666 6.12544 -2.86712
lowerback 11.5363 0.845088 -1.79454
upperback -0.472772 0.863676 -0.215181
thorax -7.00658 0.482826 0.635306
lowerneck -21.4667 -5.73452 -4.13019
upperneck 14.0807 -8.19761 8.40395
head 8.43586 -3.23036 2.3916
rclavicle 9.64106e-015 5.56597e-015
rhumerus 7.83084 34.3993 -49.3837
rradius 95.8865
rwrist -32.5188
rhand 15.4262 -45.9957
rfingers 7.12502
rthumb 40.2526 -71.145
lclavicle 9.64106e-015 5.56597e-015
lhumerus 6.45107 -35.6795 81.7301
lradius 86.0635
lwrist 43.5838
lhand -22.3694 -7.48453
lfingers 7.12502
lthumb 4.05207 22.4567
rfemur 3.11737 -6.79497 16.9929
rtibia -7.95139e-016
rfoot -15.2489 -10.4838
rtoes -0.891236
lfemur -12.793 -5.91927 -10.4136
ltibia 23.1332
lfoot -17.9249 9.73379
ltoes -56.1536
943
root -0.689997 18.8169 5.17197 4.01736 6.01923 -2.90645
lowerback 11.25 0.812651 -1.97603
upperback -0.355589 0.811998 -0.0994272
thorax -6.72282 0.463585 0.872927
lowerneck -21.4325 -5.60211 -4.1087
upperneck 13.9576 -7.99163 8.29883
head 8.36823 -3.14746 2.38314
rclavicle -2.5345e-014 -1.59028e-015
rhumerus 7.01407 33.5218 -50.2546
rradius 97.1654
rwrist -33.4003
rhand 16.4205 -45.5023
rfingers 7.12502
rthumb 41.187 -70.3589
lclavicle -2.5345e-014 -1.59028e-015
lhumerus 5.67033 -35.7483 81.8305
lradius 86.9966
lwrist 43.615
lhand -22.4276 -7.64592
lfingers 7.12502
lthumb 3.99587 22.2964
rfemur 3.09409 -6.68641 17.0254
rtibia 6.36111e-015
rfoot -15.2333 -10.5084
rtoes -1.01789
lfemur -12.7666 -5.94435 -10.3868
ltibia 23.1451
lfoot -17.9786 9.81688
ltoes -56.1181
944
root -0.685907 18.8164 5.17316 4.00945 5.87571 -2.92652
lowerback 11.5645 0.874163 -1.67442
upperback -0.648969 0.91015 -0.301211
thorax -7.20822 0.501419 0.466563
lowerneck -21.2527 -5.66114 -4.14231
upperneck 14.2235 -8.1199 8.44252
head 8.44521 -3.19282 2.42139
rclavicle 4.87022e-015 1.35174e-014
rhumerus 7.67647 33.7308 -49.0196
rradius 98.2123
rwrist -35.8641
rhand 15.6461 -44.9761
rfingers 7.12502
rthumb 40.4595 -70.0618
lclavicle 4.87022e-015 1.35174e-014
lhumerus 4.23543 -36.4757 82.2157
lradius 87.9274
lwrist 43.6642
lhand -22.5653 -7.89279
lfingers 7.12502
lthumb 3.86291 22.0519
rfemur 3.08347 -6.54147 17.0338
rtibia -1.11319e-014
rfoot -15.2269 -10.5391
rtoes -1.13634
lfemur -12.713 -5.95064 -10.3818
ltibia 23.1432
lfoot -18.0842 9.87576
ltoes -56.0055
945
root -0.683292 18.8162 5.173 3.99043 5.68917 -2.93221
lowerback 11.7094 0.914323 -1.59083
upperback -0.781257 0.964174 -0.390125
thorax -7.43012 0.524265 0.312343
lowerneck -21.1936 -5.67888 -4.19255
upperneck 14.3921 -8.17292 8.57481
head 8.50499 -3.20397 2.46753
rclavicle -6.06293e-015 -2.38542e-015
rhumerus 7.92927 33.3466 -48.8841
rradius 98.6954
rwrist -37.2137
rhand 15.2043 -44.1586
rfingers 7.12502
rthumb 40.0439 -69.3714
lclavicle -6.06293e-015 -2.38542e-015
lhumerus 3.10572 -36.9557 82.5819
lradius 88.7276
lwrist 43.6654
lhand -22.6145 -8.13358
lfingers 7.12502
lthumb 3.8154 21.812
rfemur 3.07814 -6.35427 17.0301
rtibia -2.38542e-015
rfoot -15.2328 -10.5687
rtoes -1.16036
lfemur -12.634 -5.89886 -10.3915
ltibia 23.1182
lfoot -18.165 9.95487
ltoes -55.9721
946
root -0.681515 18.8157 5.1719 3.95416 5.45016 -2.8865
lowerback 11.7077 0.939486 -1.5904
upperback -0.780503 0.990242 -0.491034
thorax -7.42701 0.534747 0.200756
lowerneck -21.2526 -5.64851 -4.10732
upperneck 14.4789 -8.17102 8.61256
head 8.5432 -3.19025 2.46598
rclavicle -4.96962e-016 1.59028e-015
rhumerus 7.61204 32.3665 -50.0343
rradius 98.5592
rwrist -37.5176
rhand 15.4158 -43.2753
rfingers 7.12502
rthumb 40.2429 -68.4277
lclavicle -4.96962e-016 1.59028e-015
lhumerus 2.31077 -37.3422 82.6962
lradius 89.4548
lwrist 43.6987
lhand -22.6023 -8.23177
lfingers 7.12502
lthumb 3.82714 21.7136
rfemur 3.0863 -6.11688 16.9666
rtibia 7.95139e-016
rfoot -15.2243 -10.5946
rtoes -1.17752
lfemur -12.5039 -5.85911 -10.4624
ltibia 23.0781
lfoot -18.1987 10.0931
ltoes -55.8853
947
root -0.679684 18.8154 5.17063 3.91832 5.17123 -2.80816
lowerback 11.6766 0.964989 -1.62461
upperback -0.748853 1.01294 -0.591963
thorax -7.37465 0.544659 0.110187
lowerneck -21.3659 -5.593 -3.99626
upperneck 14.5711 -8.1302 8.59487
head 8.58595 -3.16086 2.44634
rclavicle -1.33186e-014 -4.77083e-015
rhumerus 6.57277 30.9197 -52.3396
rradius 97.9811
rwrist -36.6491
rhand 15.8868 -42.5138
rfingers 7.12502
rthumb 40.6858 -67.5293
lclavicle -1.33186e-014 -4.77083e-015
lhumerus 1.58091 -37.6294 82.7926
lradius 90.1703
lwrist 43.5917
lhand -22.6116 -8.27821
lfingers 7.12502
lthumb 3.81817 21.6673
rfemur 3.08671 -5.84144 16.866
rtibia -1.35174e-014
rfoot -15.1968 -10.6358
rtoes -1.30997
lfemur -12.3572 -5.76838 -10.5756
ltibia 23.0357
lfoot -18.2396 10.231
ltoes -55.7988
